<?xml version="1.0" encoding="UTF-8"?>
<!-- Generator: CustomSymbols v2.7.3.49 by @serious_bret https://bretlester.com/app_content/CustomSymbols/ -->
<!-- Guides: Left/Right 0.065/0.065 Cap/Base 0.062/0.062 -->
<!-- Settings: RefScale 0.9950000047683716 Min/Max Stroke Scales 0.5/2.21 -->
<!DOCTYPE svg
PUBLIC "-//W3C//DTD SVG 1.1//EN"
       "http://www.w3.org/Graphics/SVG/1.1/DTD/svg11.dtd">
<svg version="1.1" xmlns="http://www.w3.org/2000/svg" xmlns:xlink="http://www.w3.org/1999/xlink" width="3300" height="2200">
<![CDATA[<svg width="100" height="100" viewBox="0 0 100 100" fill="none" xmlns="http://www.w3.org/2000/svg">
  <!-- Outer Compass Circle -->
  <circle cx="50" cy="50" r="40" stroke="#000" stroke-width="4" fill="none"/>

  <!-- Navigation Arrow -->
  <polygon points="50,20 60,55 50,50 40,55" fill="#000"/>

  <!-- Center Dot -->
  <circle cx="50" cy="50" r="3" fill="#000"/>

  <!-- JB Monogram -->
  <text x="50%" y="75" text-anchor="middle" font-size="10" font-family="SF Pro, Helvetica, Arial, sans-serif" fill="#000">
    JB
  </text>
</svg>
]]>
 <g id="Notes">
  <rect height="2200" id="artboard" style="fill:white;opacity:1" width="3300" x="0" y="0"/>
  <line id="" style="fill:none;stroke:black;opacity:1;stroke-width:0.5;" x1="263" x2="3036" y1="292" y2="292"/>
  <text id="reftext1" style="stroke:none;fill:black;font-family:-apple-system,&quot;SF Pro Display&quot;,&quot;SF Pro Text&quot;,Helvetica,sans-serif;font-weight:bold;" transform="matrix(1 0 0 1 263 322)">Weight/Scale Variations</text>
  <text id="reftext2" style="stroke:none;fill:black;font-family:-apple-system,&quot;SF Pro Display&quot;,&quot;SF Pro Text&quot;,Helvetica,sans-serif;text-anchor:middle;" transform="matrix(1 0 0 1 559.711 322)">Ultralight</text>
  <text style="stroke:none;fill:black;font-family:-apple-system,&quot;SF Pro Display&quot;,&quot;SF Pro Text&quot;,Helvetica,sans-serif;text-anchor:middle;" transform="matrix(1 0 0 1 856.422 322)">Thin</text>
  <text style="stroke:none;fill:black;font-family:-apple-system,&quot;SF Pro Display&quot;,&quot;SF Pro Text&quot;,Helvetica,sans-serif;text-anchor:middle;" transform="matrix(1 0 0 1 1153.13 322)">Light</text>
  <text style="stroke:none;fill:black;font-family:-apple-system,&quot;SF Pro Display&quot;,&quot;SF Pro Text&quot;,Helvetica,sans-serif;text-anchor:middle;" transform="matrix(1 0 0 1 1449.84 322)">Regular</text>
  <text style="stroke:none;fill:black;font-family:-apple-system,&quot;SF Pro Display&quot;,&quot;SF Pro Text&quot;,Helvetica,sans-serif;text-anchor:middle;" transform="matrix(1 0 0 1 1746.56 322)">Medium</text>
  <text style="stroke:none;fill:black;font-family:-apple-system,&quot;SF Pro Display&quot;,&quot;SF Pro Text&quot;,Helvetica,sans-serif;text-anchor:middle;" transform="matrix(1 0 0 1 2043.27 322)">Semibold</text>
  <text style="stroke:none;fill:black;font-family:-apple-system,&quot;SF Pro Display&quot;,&quot;SF Pro Text&quot;,Helvetica,sans-serif;text-anchor:middle;" transform="matrix(1 0 0 1 2339.98 322)">Bold</text>
  <text style="stroke:none;fill:black;font-family:-apple-system,&quot;SF Pro Display&quot;,&quot;SF Pro Text&quot;,Helvetica,sans-serif;text-anchor:middle;" transform="matrix(1 0 0 1 2636.69 322)">Heavy</text>
  <text style="stroke:none;fill:black;font-family:-apple-system,&quot;SF Pro Display&quot;,&quot;SF Pro Text&quot;,Helvetica,sans-serif;text-anchor:middle;" transform="matrix(1 0 0 1 2933.4 322)">Black</text>
  <line id="" style="fill:none;stroke:black;opacity:1;stroke-width:0.5;" x1="263" x2="3036" y1="1903" y2="1903"/>
  <g id="" transform="matrix(1 0 0 1 263 1933)">
   <path d="M9.24805 0.830078C13.5547 0.830078 17.1387-2.74414 17.1387-7.05078C17.1387-11.3574 13.5449-14.9316 9.23828-14.9316C4.94141-14.9316 1.36719-11.3574 1.36719-7.05078C1.36719-2.74414 4.95117 0.830078 9.24805 0.830078ZM9.24805-0.654297C5.70312-0.654297 2.87109-3.49609 2.87109-7.05078C2.87109-10.6055 5.69336-13.4473 9.23828-13.4473C12.793-13.4473 15.6348-10.6055 15.6445-7.05078C15.6543-3.49609 12.8027-0.654297 9.24805-0.654297ZM6.39648-6.31836L8.50586-6.31836L8.50586-4.19922C8.50586-3.75977 8.79883-3.45703 9.22852-3.45703C9.67773-3.45703 9.9707-3.75977 9.9707-4.19922L9.9707-6.31836L12.0996-6.31836C12.5391-6.31836 12.8418-6.61133 12.8418-7.04102C12.8418-7.48047 12.5391-7.7832 12.0996-7.7832L9.9707-7.7832L9.9707-9.89258C9.9707-10.3418 9.67773-10.6445 9.22852-10.6445C8.79883-10.6445 8.50586-10.3418 8.50586-9.89258L8.50586-7.7832L6.39648-7.7832C5.94727-7.7832 5.64453-7.48047 5.64453-7.04102C5.64453-6.61133 5.94727-6.31836 6.39648-6.31836Z"/>
  </g>
  <g id="" transform="matrix(1 0 0 1 281.506 1933)">
   <path d="M11.709 2.91016C17.1582 2.91016 21.6699-1.61133 21.6699-7.05078C21.6699-12.5 17.1484-17.0117 11.6992-17.0117C6.25977-17.0117 1.74805-12.5 1.74805-7.05078C1.74805-1.61133 6.26953 2.91016 11.709 2.91016ZM11.709 1.25C7.09961 1.25 3.41797-2.44141 3.41797-7.05078C3.41797-11.6602 7.08984-15.3516 11.6992-15.3516C16.3086-15.3516 20-11.6602 20.0098-7.05078C20.0195-2.44141 16.3184 1.25 11.709 1.25ZM7.98828-6.23047L10.8789-6.23047L10.8789-3.32031C10.8789-2.83203 11.2109-2.5 11.6895-2.5C12.1777-2.5 12.5195-2.83203 12.5195-3.32031L12.5195-6.23047L15.4297-6.23047C15.918-6.23047 16.25-6.5625 16.25-7.04102C16.25-7.5293 15.918-7.87109 15.4297-7.87109L12.5195-7.87109L12.5195-10.7617C12.5195-11.2695 12.1777-11.6016 11.6895-11.6016C11.2109-11.6016 10.8789-11.2598 10.8789-10.7617L10.8789-7.87109L7.98828-7.87109C7.48047-7.87109 7.14844-7.5293 7.14844-7.04102C7.14844-6.5625 7.49023-6.23047 7.98828-6.23047Z"/>
  </g>
  <g id="" transform="matrix(1 0 0 1 304.924 1933)">
   <path d="M14.9707 5.66406C21.9336 5.66406 27.6953-0.0976562 27.6953-7.05078C27.6953-14.0137 21.9238-19.7754 14.9609-19.7754C8.00781-19.7754 2.25586-14.0137 2.25586-7.05078C2.25586-0.0976562 8.01758 5.66406 14.9707 5.66406ZM14.9707 3.84766C8.93555 3.84766 4.08203-1.01562 4.08203-7.05078C4.08203-13.0957 8.92578-17.9492 14.9609-17.9492C21.0059-17.9492 25.8594-13.0957 25.8691-7.05078C25.8789-1.01562 21.0156 3.84766 14.9707 3.84766ZM10.0586-6.14258L14.0625-6.14258L14.0625-2.12891C14.0625-1.5918 14.4336-1.2207 14.9512-1.2207C15.4883-1.2207 15.8594-1.5918 15.8594-2.12891L15.8594-6.14258L19.8828-6.14258C20.4102-6.14258 20.791-6.51367 20.791-7.03125C20.791-7.56836 20.4199-7.94922 19.8828-7.94922L15.8594-7.94922L15.8594-11.9531C15.8594-12.5098 15.4883-12.8809 14.9512-12.8809C14.4336-12.8809 14.0625-12.5 14.0625-11.9531L14.0625-7.94922L10.0586-7.94922C9.50195-7.94922 9.13086-7.56836 9.13086-7.03125C9.13086-6.51367 9.51172-6.14258 10.0586-6.14258Z"/>
  </g>
  <text style="stroke:none;fill:black;font-family:-apple-system,&quot;SF Pro Display&quot;,&quot;SF Pro Text&quot;,Helvetica,sans-serif;font-weight:bold;" transform="matrix(1 0 0 1 263 1953)">Design Variations</text>
  <text style="stroke:none;fill:black;font-family:-apple-system,&quot;SF Pro Display&quot;,&quot;SF Pro Text&quot;,Helvetica,sans-serif;" transform="matrix(1 0 0 1 263 1971)">Symbols are supported in up to nine weights and three scales.</text>
  <text style="stroke:none;fill:black;font-family:-apple-system,&quot;SF Pro Display&quot;,&quot;SF Pro Text&quot;,Helvetica,sans-serif;" transform="matrix(1 0 0 1 263 1989)">For optimal layout with text and other symbols, vertically align</text>
  <text style="stroke:none;fill:black;font-family:-apple-system,&quot;SF Pro Display&quot;,&quot;SF Pro Text&quot;,Helvetica,sans-serif;" transform="matrix(1 0 0 1 263 2007)">symbols with the adjacent text.</text>
  <line id="" style="fill:none;stroke:#00AEEF;stroke-width:0.5;opacity:1.0;" x1="776" x2="776" y1="1919" y2="1933"/>
  <g id="" transform="matrix(1 0 0 1 776 1933)">
   <path d="M3.31055 0.126953C3.82812 0.126953 4.08203-0.0683594 4.26758-0.605469L5.52734-4.0625L11.2891-4.0625L12.5488-0.605469C12.7344-0.0683594 12.9883 0.126953 13.4961 0.126953C14.0137 0.126953 14.3457-0.185547 14.3457-0.673828C14.3457-0.839844 14.3164-0.986328 14.2383-1.20117L9.6582-13.3887C9.43359-13.9941 9.0332-14.2871 8.4082-14.2871C7.80273-14.2871 7.39258-13.9941 7.17773-13.3984L2.59766-1.19141C2.51953-0.976562 2.49023-0.830078 2.49023-0.664062C2.49023-0.175781 2.80273 0.126953 3.31055 0.126953ZM6.00586-5.53711L8.37891-12.1094L8.42773-12.1094L10.8008-5.53711Z"/>
  </g>
  <line id="" style="fill:none;stroke:#00AEEF;stroke-width:0.5;opacity:1.0;" x1="792.836" x2="792.836" y1="1919" y2="1933"/>
  <text style="stroke:none;fill:black;font-family:-apple-system,&quot;SF Pro Display&quot;,&quot;SF Pro Text&quot;,Helvetica,sans-serif;font-weight:bold;" transform="matrix(1 0 0 1 776 1953)">Margins</text>
  <text style="stroke:none;fill:black;font-family:-apple-system,&quot;SF Pro Display&quot;,&quot;SF Pro Text&quot;,Helvetica,sans-serif;" transform="matrix(1 0 0 1 776 1971)">Leading and trailing margins on the left and right side of each symbol</text>
  <text style="stroke:none;fill:black;font-family:-apple-system,&quot;SF Pro Display&quot;,&quot;SF Pro Text&quot;,Helvetica,sans-serif;" transform="matrix(1 0 0 1 776 1989)">can be adjusted by modifying the x-location of the margin guidelines.</text>
  <text style="stroke:none;fill:black;font-family:-apple-system,&quot;SF Pro Display&quot;,&quot;SF Pro Text&quot;,Helvetica,sans-serif;" transform="matrix(1 0 0 1 776 2007)">Modifications are automatically applied proportionally to all</text>
  <text style="stroke:none;fill:black;font-family:-apple-system,&quot;SF Pro Display&quot;,&quot;SF Pro Text&quot;,Helvetica,sans-serif;" transform="matrix(1 0 0 1 776 2025)">scales and weights.</text>
  <g id="" transform="matrix(1 0 0 1 1289 1933)">
   <path d="M2.8418 1.86523L4.54102 3.57422C5.40039 4.44336 6.38672 4.38477 7.31445 3.35938L17.4902-7.85156C17.7539-7.76367 18.0273-7.7832 18.3398-7.8418L19.4043-8.03711L20.0684-7.36328L20.0293-6.80664C19.9902-6.30859 20.1172-5.92773 20.6055-5.44922L21.3672-4.70703C21.8457-4.22852 22.4609-4.19922 22.9297-4.66797L25.8398-7.58789C26.3086-8.05664 26.2891-8.65234 25.8105-9.13086L25.0391-9.89258C24.5605-10.3711 24.1895-10.5273 23.7109-10.4883L23.1348-10.4395L22.4902-11.0742L22.7344-12.1973C22.8613-12.7637 22.7051-13.2031 22.1191-13.7891L19.9219-15.9766C16.582-19.2969 12.1484-19.2188 9.25781-16.3281C8.83789-15.918 8.80859-15.3418 9.04297-14.9512C9.27734-14.5898 9.73633-14.3555 10.3809-14.5215C11.8457-14.8633 13.3691-14.9219 14.7949-13.9844L14.209-12.5293C14.0137-12.0508 13.9844-11.6504 14.1113-11.2891L3.04688-0.898438C2.06055 0.0195312 1.98242 0.996094 2.8418 1.86523ZM10.752-15.957C13.1836-17.7344 16.4746-17.4316 18.7012-15.2051L21.1328-12.793C21.3672-12.5586 21.4062-12.373 21.3379-12.0312L21.0156-10.5469L22.5195-9.0625L23.5059-9.12109C23.7598-9.13086 23.8379-9.11133 24.0332-8.91602L24.6094-8.33984L22.168-5.89844L21.5918-6.47461C21.3965-6.66992 21.3672-6.74805 21.377-7.01172L21.4453-7.98828L19.9512-9.47266L18.4277-9.21875C18.1055-9.15039 17.959-9.17969 17.7148-9.41406L15.7129-11.416C15.459-11.6504 15.4297-11.8164 15.5859-12.1875L16.4648-14.2773C14.9023-15.7324 12.8711-16.3574 10.8398-15.7617C10.6836-15.7227 10.625-15.8496 10.752-15.957ZM5.27344 2.30469L4.10156 1.14258C3.63281 0.683594 3.74023 0.341797 4.14062-0.0195312L14.9512-10.1953L16.416-8.71094L6.42578 2.27539C6.07422 2.67578 5.74219 2.77344 5.27344 2.30469Z"/>
  </g>
  <text style="stroke:none;fill:black;font-family:-apple-system,&quot;SF Pro Display&quot;,&quot;SF Pro Text&quot;,Helvetica,sans-serif;font-weight:bold;" transform="matrix(1 0 0 1 1289 1953)">Exporting</text>
  <text style="stroke:none;fill:black;font-family:-apple-system,&quot;SF Pro Display&quot;,&quot;SF Pro Text&quot;,Helvetica,sans-serif;" transform="matrix(1 0 0 1 1289 1971)">Symbols should be outlined when exporting to ensure the</text>
  <text style="stroke:none;fill:black;font-family:-apple-system,&quot;SF Pro Display&quot;,&quot;SF Pro Text&quot;,Helvetica,sans-serif;" transform="matrix(1 0 0 1 1289 1989)">design is preserved when submitting to Xcode.</text>
  <text id="template-version" style="stroke:none;fill:black;font-family:-apple-system,&quot;SF Pro Display&quot;,&quot;SF Pro Text&quot;,Helvetica,sans-serif;text-anchor:end;" transform="matrix(1 0 0 1 3036 1933)">Template v.2.0</text>
  <text style="stroke:none;fill:black;font-family:-apple-system,&quot;SF Pro Display&quot;,&quot;SF Pro Text&quot;,Helvetica,sans-serif;text-anchor:end;" transform="matrix(1 0 0 1 3036 1951)">Requires Xcode 12 or greater</text>
  <text style="stroke:none;fill:black;font-family:-apple-system,&quot;SF Pro Display&quot;,&quot;SF Pro Text&quot;,Helvetica,sans-serif;" transform="matrix(1 0 0 1 263 726)">Small</text>
  <text style="stroke:none;fill:black;font-family:-apple-system,&quot;SF Pro Display&quot;,&quot;SF Pro Text&quot;,Helvetica,sans-serif;" transform="matrix(1 0 0 1 263 1156)">Medium</text>
  <text style="stroke:none;fill:black;font-family:-apple-system,&quot;SF Pro Display&quot;,&quot;SF Pro Text&quot;,Helvetica,sans-serif;" transform="matrix(1 0 0 1 263 1586)">Large</text>
 </g>
 <g id="Guides">
  <g id="H-reference" style="fill:#27AAE1;stroke:none;" transform="matrix(1 0 0 1 339 696)">
   <path d="M0.976562 0L3.66211 0L12.9883-24.4629L45.752-24.4629L55.127 0L57.7637 0L30.6152-70.459L28.125-70.459ZM29.3457-67.1387L29.4434-67.1387L44.873-26.709L13.8672-26.709Z"/>
  </g>
  <line id="Baseline-S" style="fill:none;stroke:#27AAE1;opacity:1;stroke-width:0.5;" x1="263" x2="3036" y1="696" y2="696"/>
  <line id="Capline-S" style="fill:none;stroke:#27AAE1;opacity:1;stroke-width:0.5;" x1="263" x2="3036" y1="625.541" y2="625.541"/>
  <g id="H-reference" style="fill:#27AAE1;stroke:none;" transform="matrix(1 0 0 1 339 1126)">
   <path d="M0.976562 0L3.66211 0L12.9883-24.4629L45.752-24.4629L55.127 0L57.7637 0L30.6152-70.459L28.125-70.459ZM29.3457-67.1387L29.4434-67.1387L44.873-26.709L13.8672-26.709Z"/>
  </g>
  <line id="Baseline-M" style="fill:none;stroke:#27AAE1;opacity:1;stroke-width:0.5;" x1="263" x2="3036" y1="1126" y2="1126"/>
  <line id="Capline-M" style="fill:none;stroke:#27AAE1;opacity:1;stroke-width:0.5;" x1="263" x2="3036" y1="1055.54" y2="1055.54"/>
  <g id="H-reference" style="fill:#27AAE1;stroke:none;" transform="matrix(1 0 0 1 339 1556)">
   <path d="M0.976562 0L3.66211 0L12.9883-24.4629L45.752-24.4629L55.127 0L57.7637 0L30.6152-70.459L28.125-70.459ZM29.3457-67.1387L29.4434-67.1387L44.873-26.709L13.8672-26.709Z"/>
  </g>
  <line id="Baseline-L" style="fill:none;stroke:#27AAE1;opacity:1;stroke-width:0.5;" x1="263" x2="3036" y1="1556" y2="1556"/>
  <line id="Capline-L" style="fill:none;stroke:#27AAE1;opacity:1;stroke-width:0.5;" x1="263" x2="3036" y1="1485.54" y2="1485.54"/>
  <line id="left-margin" x1="1416.1413207673372" x2="1416.1413207673372" y1="1030.79" y2="1150.12" style="fill:none;stroke:#00AEEF;stroke-width:0.5;opacity:1.0;"/>
  <line id="right-margin" x1="1486.1186792326625" x2="1486.1186792326625" y1="1030.79" y2="1150.12" style="fill:none;stroke:#00AEEF;stroke-width:0.5;opacity:1.0;"/>
 </g>
 <g id="Symbols">
  <g id="Black-L" transform="matrix(1.0,0.0,0.0,1.0,2882.800234241224,1468.8902537724744)">  <path stroke-linecap="butt" stroke="none" r="40" stroke-miterlimit="4" stroke-width="3.98px" fill="#000000" stroke-linejoin="miter" stroke-opacity="1" fill-opacity="1" fill-rule="nonzero" stroke-dasharray="none" cx="50" cy="50" d="M88.843,51.88C88.843,72.294,72.294,88.843,51.88,88.843C31.465,88.843,14.916,72.294,14.916,51.88C14.916,31.465,31.465,14.916,51.88,14.916C72.294,14.916,88.843,31.465,88.843,51.88ZM97.924,51.88C97.924,26.45,77.309,5.836,51.88,5.836C26.45,5.836,5.836,26.45,5.836,51.88C5.836,77.309,26.45,97.924,51.88,97.924C77.309,97.924,97.924,77.309,97.924,51.88Z"/>
  <path stroke-dasharray="none" points="50,20 60,55 50,50 40,55" fill="#000000" stroke-width="0.990025px" fill-rule="nonzero" stroke-linecap="butt" stroke-miterlimit="4" stroke-linejoin="miter" fill-opacity="1" stroke="none" stroke-opacity="1" d="M51.88,20.752L62.256,57.068L51.88,51.88L41.504,57.068ZM51.88,20.752"/>
  <path fill="#000000" r="3" stroke-opacity="1" stroke-dasharray="none" stroke-width="0.990025px" stroke-miterlimit="4" fill-rule="nonzero" cy="50" cx="50" stroke-linejoin="miter" stroke-linecap="butt" fill-opacity="1" stroke="none" d="M54.993,51.88C54.993,53.599,53.599,54.993,51.88,54.993C50.161,54.993,48.767,53.599,48.767,51.88C48.767,50.161,50.161,48.767,51.88,48.767C53.599,48.767,54.993,50.161,54.993,51.88ZM54.993,51.88"/>
</g>
  <g id="Heavy-L" transform="matrix(1.0,0.0,0.0,1.0,2586.090234241224,1468.8902537724744)">  <path stroke-miterlimit="4" stroke-dasharray="none" r="40" stroke-linecap="butt" fill="#000000" stroke-opacity="1" fill-rule="nonzero" cy="50" stroke="none" stroke-linejoin="miter" cx="50" stroke-width="3.98px" fill-opacity="1" d="M89.34,51.88C89.34,72.569,72.569,89.34,51.88,89.34C31.191,89.34,14.419,72.569,14.419,51.88C14.419,31.191,31.191,14.419,51.88,14.419C72.569,14.419,89.34,31.191,89.34,51.88ZM97.427,51.88C97.427,26.725,77.035,6.333,51.88,6.333C26.725,6.333,6.333,26.725,6.333,51.88C6.333,77.035,26.725,97.427,51.88,97.427C77.035,97.427,97.427,77.035,97.427,51.88Z"/>
  <path stroke="none" points="50,20 60,55 50,50 40,55" fill-rule="nonzero" fill-opacity="1" stroke-width="0.990025px" stroke-linecap="butt" stroke-miterlimit="4" stroke-dasharray="none" stroke-linejoin="miter" stroke-opacity="1" fill="#000000" d="M51.88,20.752L62.256,57.068L51.88,51.88L41.504,57.068ZM51.88,20.752"/>
  <path cy="50" fill-opacity="1" r="3" stroke="none" stroke-opacity="1" fill="#000000" fill-rule="nonzero" cx="50" stroke-width="0.990025px" stroke-miterlimit="4" stroke-dasharray="none" stroke-linejoin="miter" stroke-linecap="butt" d="M54.993,51.88C54.993,53.599,53.599,54.993,51.88,54.993C50.161,54.993,48.767,53.599,48.767,51.88C48.767,50.161,50.161,48.767,51.88,48.767C53.599,48.767,54.993,50.161,54.993,51.88ZM54.993,51.88"/>
</g>
  <g id="Bold-L" transform="matrix(1.0,0.0,0.0,1.0,2289.380234241224,1468.8902537724744)">  <path stroke-miterlimit="4" stroke-dasharray="none" stroke-opacity="1" fill-rule="nonzero" cx="50" fill-opacity="1" cy="50" stroke="none" stroke-width="3.98px" stroke-linejoin="miter" stroke-linecap="butt" fill="#000000" r="40" d="M89.838,51.88C89.838,72.843,72.843,89.838,51.88,89.838C30.916,89.838,13.922,72.843,13.922,51.88C13.922,30.916,30.916,13.922,51.88,13.922C72.843,13.922,89.838,30.916,89.838,51.88ZM96.93,51.88C96.93,26.999,76.76,6.83,51.88,6.83C26.999,6.83,6.83,26.999,6.83,51.88C6.83,76.76,26.999,96.93,51.88,96.93C76.76,96.93,96.93,76.76,96.93,51.88Z"/>
  <path points="50,20 60,55 50,50 40,55" stroke-opacity="1" stroke="none" stroke-linejoin="miter" fill-opacity="1" stroke-miterlimit="4" stroke-linecap="butt" fill="#000000" fill-rule="nonzero" stroke-dasharray="none" stroke-width="0.990025px" d="M51.88,20.752L62.256,57.068L51.88,51.88L41.504,57.068ZM51.88,20.752"/>
  <path stroke-dasharray="none" stroke-opacity="1" fill-opacity="1" r="3" stroke-width="0.990025px" stroke="none" fill="#000000" stroke-miterlimit="4" stroke-linecap="butt" fill-rule="nonzero" cx="50" stroke-linejoin="miter" cy="50" d="M54.993,51.88C54.993,53.599,53.599,54.993,51.88,54.993C50.161,54.993,48.767,53.599,48.767,51.88C48.767,50.161,50.161,48.767,51.88,48.767C53.599,48.767,54.993,50.161,54.993,51.88ZM54.993,51.88"/>
</g>
  <g id="Semibold-L" transform="matrix(1.0,0.0,0.0,1.0,1992.6702342412243,1468.8902537724744)">  <path fill-rule="nonzero" stroke-width="3.98px" fill="#000000" cx="50" stroke-linecap="butt" r="40" stroke="none" stroke-linejoin="miter" fill-opacity="1" cy="50" stroke-miterlimit="4" stroke-opacity="1" stroke-dasharray="none" d="M90.335,51.88C90.335,73.118,73.118,90.335,51.88,90.335C30.642,90.335,13.425,73.118,13.425,51.88C13.425,30.642,30.642,13.425,51.88,13.425C73.118,13.425,90.335,30.642,90.335,51.88ZM96.432,51.88C96.432,27.274,76.486,7.327,51.88,7.327C27.274,7.327,7.327,27.274,7.327,51.88C7.327,76.486,27.274,96.432,51.88,96.432C76.486,96.432,96.432,76.486,96.432,51.88Z"/>
  <path stroke-miterlimit="4" stroke-opacity="1" stroke-linecap="butt" stroke-dasharray="none" fill-rule="nonzero" points="50,20 60,55 50,50 40,55" stroke-width="0.990025px" stroke-linejoin="miter" fill="#000000" fill-opacity="1" stroke="none" d="M51.88,20.752L62.256,57.068L51.88,51.88L41.504,57.068ZM51.88,20.752"/>
  <path fill="#000000" cx="50" stroke="none" stroke-dasharray="none" fill-rule="nonzero" stroke-width="0.990025px" stroke-linecap="butt" stroke-linejoin="miter" stroke-miterlimit="4" cy="50" fill-opacity="1" r="3" stroke-opacity="1" d="M54.993,51.88C54.993,53.599,53.599,54.993,51.88,54.993C50.161,54.993,48.767,53.599,48.767,51.88C48.767,50.161,50.161,48.767,51.88,48.767C53.599,48.767,54.993,50.161,54.993,51.88ZM54.993,51.88"/>
</g>
  <g id="Medium-L" transform="matrix(1.0,0.0,0.0,1.0,1695.9602342412243,1468.8902537724744)">  <path stroke-linecap="butt" fill="#000000" stroke-miterlimit="4" cy="50" stroke-dasharray="none" stroke="none" stroke-width="3.98px" fill-opacity="1" cx="50" fill-rule="nonzero" stroke-opacity="1" r="40" stroke-linejoin="miter" d="M90.832,51.88C90.832,73.392,73.392,90.832,51.88,90.832C30.367,90.832,12.928,73.392,12.928,51.88C12.928,30.367,30.367,12.928,51.88,12.928C73.392,12.928,90.832,30.367,90.832,51.88ZM95.935,51.88C95.935,27.549,76.211,7.824,51.88,7.824C27.549,7.824,7.824,27.549,7.824,51.88C7.824,76.211,27.549,95.935,51.88,95.935C76.211,95.935,95.935,76.211,95.935,51.88Z"/>
  <path fill-rule="nonzero" stroke-dasharray="none" stroke-miterlimit="4" stroke-linecap="butt" fill="#000000" stroke-width="0.990025px" stroke-opacity="1" fill-opacity="1" stroke="none" stroke-linejoin="miter" points="50,20 60,55 50,50 40,55" d="M51.88,20.752L62.256,57.068L51.88,51.88L41.504,57.068ZM51.88,20.752"/>
  <path cy="50" r="3" fill="#000000" stroke-miterlimit="4" cx="50" stroke-linecap="butt" stroke-width="0.990025px" fill-opacity="1" stroke-dasharray="none" stroke-opacity="1" stroke-linejoin="miter" stroke="none" fill-rule="nonzero" d="M54.993,51.88C54.993,53.599,53.599,54.993,51.88,54.993C50.161,54.993,48.767,53.599,48.767,51.88C48.767,50.161,50.161,48.767,51.88,48.767C53.599,48.767,54.993,50.161,54.993,51.88ZM54.993,51.88"/>
</g>
  <g id="Regular-L" transform="matrix(1.0,0.0,0.0,1.0,1399.2502342412242,1468.8902537724744)">  <path stroke-linejoin="miter" fill-rule="nonzero" r="40" fill-opacity="1" stroke-linecap="butt" fill="#000000" stroke-dasharray="none" cx="50" stroke="none" cy="50" stroke-width="3.98px" stroke-opacity="1" stroke-miterlimit="4" d="M91.329,51.88C91.329,73.667,73.667,91.329,51.88,91.329C30.093,91.329,12.43,73.667,12.43,51.88C12.43,30.093,30.093,12.43,51.88,12.43C73.667,12.43,91.329,30.093,91.329,51.88ZM95.438,51.88C95.438,27.823,75.936,8.321,51.88,8.321C27.823,8.321,8.321,27.823,8.321,51.88C8.321,75.936,27.823,95.438,51.88,95.438C75.936,95.438,95.438,75.936,95.438,51.88Z"/>
  <path points="50,20 60,55 50,50 40,55" fill-opacity="1" stroke-dasharray="none" stroke-linejoin="miter" stroke-miterlimit="4" fill-rule="nonzero" stroke-linecap="butt" stroke="none" stroke-width="0.990025px" fill="#000000" stroke-opacity="1" d="M51.88,20.752L62.256,57.068L51.88,51.88L41.504,57.068ZM51.88,20.752"/>
  <path fill-opacity="1" stroke-dasharray="none" stroke-linejoin="miter" stroke="none" stroke-miterlimit="4" fill="#000000" stroke-width="0.990025px" r="3" cy="50" stroke-opacity="1" stroke-linecap="butt" cx="50" fill-rule="nonzero" d="M54.993,51.88C54.993,53.599,53.599,54.993,51.88,54.993C50.161,54.993,48.767,53.599,48.767,51.88C48.767,50.161,50.161,48.767,51.88,48.767C53.599,48.767,54.993,50.161,54.993,51.88ZM54.993,51.88"/>
</g>
  <g id="Light-L" transform="matrix(1.0,0.0,0.0,1.0,1102.5402342412244,1468.8902537724744)">  <path stroke="none" stroke-width="3.98px" fill="#000000" cy="50" stroke-linecap="butt" r="40" fill-rule="nonzero" stroke-dasharray="none" cx="50" stroke-linejoin="miter" stroke-miterlimit="4" fill-opacity="1" stroke-opacity="1" d="M91.672,51.88C91.672,73.856,73.856,91.672,51.88,91.672C29.903,91.672,12.088,73.856,12.088,51.88C12.088,29.903,29.903,12.088,51.88,12.088C73.856,12.088,91.672,29.903,91.672,51.88ZM95.096,51.88C95.096,28.012,75.747,8.664,51.88,8.664C28.012,8.664,8.664,28.012,8.664,51.88C8.664,75.747,28.012,95.096,51.88,95.096C75.747,95.096,95.096,75.747,95.096,51.88Z"/>
  <path points="50,20 60,55 50,50 40,55" stroke-linecap="butt" stroke-width="0.990025px" stroke-dasharray="none" stroke-linejoin="miter" fill="#000000" fill-opacity="1" stroke-miterlimit="4" stroke="none" fill-rule="nonzero" stroke-opacity="1" d="M51.88,20.752L62.256,57.068L51.88,51.88L41.504,57.068ZM51.88,20.752"/>
  <path stroke-dasharray="none" stroke-linejoin="miter" cx="50" fill-rule="nonzero" stroke-miterlimit="4" r="3" cy="50" fill="#000000" stroke-opacity="1" fill-opacity="1" stroke="none" stroke-linecap="butt" stroke-width="0.990025px" d="M54.993,51.88C54.993,53.599,53.599,54.993,51.88,54.993C50.161,54.993,48.767,53.599,48.767,51.88C48.767,50.161,50.161,48.767,51.88,48.767C53.599,48.767,54.993,50.161,54.993,51.88ZM54.993,51.88"/>
</g>
  <g id="Thin-L" transform="matrix(1.0,0.0,0.0,1.0,805.8302342412244,1468.8902537724744)">  <path fill-rule="nonzero" fill-opacity="1" stroke="none" stroke-linejoin="miter" stroke-opacity="1" stroke-width="3.98px" stroke-miterlimit="4" r="40" stroke-dasharray="none" cy="50" fill="#000000" cx="50" stroke-linecap="butt" d="M92.014,51.88C92.014,74.045,74.045,92.014,51.88,92.014C29.714,92.014,11.746,74.045,11.746,51.88C11.746,29.714,29.714,11.746,51.88,11.746C74.045,11.746,92.014,29.714,92.014,51.88ZM94.753,51.88C94.753,28.201,75.558,9.006,51.88,9.006C28.201,9.006,9.006,28.201,9.006,51.88C9.006,75.558,28.201,94.753,51.88,94.753C75.558,94.753,94.753,75.558,94.753,51.88Z"/>
  <path fill-rule="nonzero" stroke-width="0.990025px" stroke="none" stroke-linecap="butt" stroke-opacity="1" stroke-linejoin="miter" stroke-miterlimit="4" fill="#000000" fill-opacity="1" stroke-dasharray="none" points="50,20 60,55 50,50 40,55" d="M51.88,20.752L62.256,57.068L51.88,51.88L41.504,57.068ZM51.88,20.752"/>
  <path cx="50" fill-rule="nonzero" stroke-dasharray="none" stroke="none" stroke-opacity="1" stroke-linecap="butt" fill="#000000" stroke-width="0.990025px" stroke-linejoin="miter" fill-opacity="1" r="3" stroke-miterlimit="4" cy="50" d="M54.993,51.88C54.993,53.599,53.599,54.993,51.88,54.993C50.161,54.993,48.767,53.599,48.767,51.88C48.767,50.161,50.161,48.767,51.88,48.767C53.599,48.767,54.993,50.161,54.993,51.88ZM54.993,51.88"/>
</g>
  <g id="Ultralight-L" transform="matrix(1.0,0.0,0.0,1.0,509.1202342412243,1468.8902537724744)">  <path fill-rule="nonzero" stroke-dasharray="none" stroke="none" fill-opacity="1" fill="#000000" stroke-linejoin="miter" stroke-linecap="butt" r="40" stroke-width="3.98px" cx="50" cy="50" stroke-miterlimit="4" stroke-opacity="1" d="M92.356,51.88C92.356,74.234,74.234,92.356,51.88,92.356C29.525,92.356,11.403,74.234,11.403,51.88C11.403,29.525,29.525,11.403,51.88,11.403C74.234,11.403,92.356,29.525,92.356,51.88ZM94.411,51.88C94.411,28.391,75.369,9.349,51.88,9.349C28.391,9.349,9.349,28.391,9.349,51.88C9.349,75.369,28.391,94.411,51.88,94.411C75.369,94.411,94.411,75.369,94.411,51.88Z"/>
  <path fill-opacity="1" stroke-miterlimit="4" stroke="none" stroke-linecap="butt" stroke-dasharray="none" fill-rule="nonzero" stroke-linejoin="miter" stroke-width="0.990025px" fill="#000000" points="50,20 60,55 50,50 40,55" stroke-opacity="1" d="M51.88,20.752L62.256,57.068L51.88,51.88L41.504,57.068ZM51.88,20.752"/>
  <path stroke-dasharray="none" r="3" stroke="none" stroke-linejoin="miter" fill="#000000" fill-opacity="1" stroke-miterlimit="4" stroke-width="0.990025px" fill-rule="nonzero" cx="50" cy="50" stroke-linecap="butt" stroke-opacity="1" d="M54.993,51.88C54.993,53.599,53.599,54.993,51.88,54.993C50.161,54.993,48.767,53.599,48.767,51.88C48.767,50.161,50.161,48.767,51.88,48.767C53.599,48.767,54.993,50.161,54.993,51.88ZM54.993,51.88"/>
</g>
  <g id="Black-M" transform="matrix(1.0,0.0,0.0,1.0,2894.4631273187783,1050.5531468500285)">  <path stroke-linecap="butt" stroke="none" r="40" stroke-miterlimit="4" stroke-width="3.98px" fill="#000000" stroke-linejoin="miter" stroke-opacity="1" fill-opacity="1" fill-rule="nonzero" stroke-dasharray="none" cx="50" cy="50" d="M68.871,40.217C68.871,56.042,56.042,68.871,40.217,68.871C24.392,68.871,11.563,56.042,11.563,40.217C11.563,24.392,24.392,11.563,40.217,11.563C56.042,11.563,68.871,24.392,68.871,40.217ZM75.91,40.217C75.91,20.504,59.93,4.524,40.217,4.524C20.504,4.524,4.524,20.504,4.524,40.217C4.524,59.93,20.504,75.91,40.217,75.91C59.93,75.91,75.91,59.93,75.91,40.217Z"/>
  <path stroke-dasharray="none" points="50,20 60,55 50,50 40,55" fill="#000000" stroke-width="0.990025px" fill-rule="nonzero" stroke-linecap="butt" stroke-miterlimit="4" stroke-linejoin="miter" fill-opacity="1" stroke="none" stroke-opacity="1" d="M40.217,16.087L48.26,44.239L40.217,40.217L32.173,44.239ZM40.217,16.087"/>
  <path fill="#000000" r="3" stroke-opacity="1" stroke-dasharray="none" stroke-width="0.990025px" stroke-miterlimit="4" fill-rule="nonzero" cy="50" cx="50" stroke-linejoin="miter" stroke-linecap="butt" fill-opacity="1" stroke="none" d="M42.63,40.217C42.63,41.55,41.55,42.63,40.217,42.63C38.884,42.63,37.804,41.55,37.804,40.217C37.804,38.884,38.884,37.804,40.217,37.804C41.55,37.804,42.63,38.884,42.63,40.217ZM42.63,40.217"/>
</g>
  <g id="Heavy-M" transform="matrix(1.0,0.0,0.0,1.0,2597.7531273187783,1050.5531468500285)">  <path stroke-miterlimit="4" stroke-dasharray="none" r="40" stroke-linecap="butt" fill="#000000" stroke-opacity="1" fill-rule="nonzero" cy="50" stroke="none" stroke-linejoin="miter" cx="50" stroke-width="3.98px" fill-opacity="1" d="M69.256,40.217C69.256,56.255,56.255,69.256,40.217,69.256C24.179,69.256,11.178,56.255,11.178,40.217C11.178,24.179,24.179,11.178,40.217,11.178C56.255,11.178,69.256,24.179,69.256,40.217ZM75.525,40.217C75.525,20.717,59.717,4.909,40.217,4.909C20.717,4.909,4.909,20.717,4.909,40.217C4.909,59.717,20.717,75.525,40.217,75.525C59.717,75.525,75.525,59.717,75.525,40.217Z"/>
  <path stroke="none" points="50,20 60,55 50,50 40,55" fill-rule="nonzero" fill-opacity="1" stroke-width="0.990025px" stroke-linecap="butt" stroke-miterlimit="4" stroke-dasharray="none" stroke-linejoin="miter" stroke-opacity="1" fill="#000000" d="M40.217,16.087L48.26,44.239L40.217,40.217L32.173,44.239ZM40.217,16.087"/>
  <path cy="50" fill-opacity="1" r="3" stroke="none" stroke-opacity="1" fill="#000000" fill-rule="nonzero" cx="50" stroke-width="0.990025px" stroke-miterlimit="4" stroke-dasharray="none" stroke-linejoin="miter" stroke-linecap="butt" d="M42.63,40.217C42.63,41.55,41.55,42.63,40.217,42.63C38.884,42.63,37.804,41.55,37.804,40.217C37.804,38.884,38.884,37.804,40.217,37.804C41.55,37.804,42.63,38.884,42.63,40.217ZM42.63,40.217"/>
</g>
  <g id="Bold-M" transform="matrix(1.0,0.0,0.0,1.0,2301.0431273187783,1050.5531468500285)">  <path stroke-miterlimit="4" stroke-dasharray="none" stroke-opacity="1" fill-rule="nonzero" cx="50" fill-opacity="1" cy="50" stroke="none" stroke-width="3.98px" stroke-linejoin="miter" stroke-linecap="butt" fill="#000000" r="40" d="M69.641,40.217C69.641,56.468,56.468,69.641,40.217,69.641C23.966,69.641,10.792,56.468,10.792,40.217C10.792,23.966,23.966,10.792,40.217,10.792C56.468,10.792,69.641,23.966,69.641,40.217ZM75.139,40.217C75.139,20.93,59.504,5.294,40.217,5.294C20.93,5.294,5.294,20.93,5.294,40.217C5.294,59.504,20.93,75.139,40.217,75.139C59.504,75.139,75.139,59.504,75.139,40.217Z"/>
  <path points="50,20 60,55 50,50 40,55" stroke-opacity="1" stroke="none" stroke-linejoin="miter" fill-opacity="1" stroke-miterlimit="4" stroke-linecap="butt" fill="#000000" fill-rule="nonzero" stroke-dasharray="none" stroke-width="0.990025px" d="M40.217,16.087L48.26,44.239L40.217,40.217L32.173,44.239ZM40.217,16.087"/>
  <path stroke-dasharray="none" stroke-opacity="1" fill-opacity="1" r="3" stroke-width="0.990025px" stroke="none" fill="#000000" stroke-miterlimit="4" stroke-linecap="butt" fill-rule="nonzero" cx="50" stroke-linejoin="miter" cy="50" d="M42.63,40.217C42.63,41.55,41.55,42.63,40.217,42.63C38.884,42.63,37.804,41.55,37.804,40.217C37.804,38.884,38.884,37.804,40.217,37.804C41.55,37.804,42.63,38.884,42.63,40.217ZM42.63,40.217"/>
</g>
  <g id="Semibold-M" transform="matrix(1.0,0.0,0.0,1.0,2004.3331273187785,1050.5531468500285)">  <path fill-rule="nonzero" stroke-width="3.98px" fill="#000000" cx="50" stroke-linecap="butt" r="40" stroke="none" stroke-linejoin="miter" fill-opacity="1" cy="50" stroke-miterlimit="4" stroke-opacity="1" stroke-dasharray="none" d="M70.027,40.217C70.027,56.681,56.681,70.027,40.217,70.027C23.753,70.027,10.407,56.681,10.407,40.217C10.407,23.753,23.753,10.407,40.217,10.407C56.681,10.407,70.027,23.753,70.027,40.217ZM74.754,40.217C74.754,21.143,59.291,5.68,40.217,5.68C21.143,5.68,5.68,21.143,5.68,40.217C5.68,59.291,21.143,74.754,40.217,74.754C59.291,74.754,74.754,59.291,74.754,40.217Z"/>
  <path stroke-miterlimit="4" stroke-opacity="1" stroke-linecap="butt" stroke-dasharray="none" fill-rule="nonzero" points="50,20 60,55 50,50 40,55" stroke-width="0.990025px" stroke-linejoin="miter" fill="#000000" fill-opacity="1" stroke="none" d="M40.217,16.087L48.26,44.239L40.217,40.217L32.173,44.239ZM40.217,16.087"/>
  <path fill="#000000" cx="50" stroke="none" stroke-dasharray="none" fill-rule="nonzero" stroke-width="0.990025px" stroke-linecap="butt" stroke-linejoin="miter" stroke-miterlimit="4" cy="50" fill-opacity="1" r="3" stroke-opacity="1" d="M42.63,40.217C42.63,41.55,41.55,42.63,40.217,42.63C38.884,42.63,37.804,41.55,37.804,40.217C37.804,38.884,38.884,37.804,40.217,37.804C41.55,37.804,42.63,38.884,42.63,40.217ZM42.63,40.217"/>
</g>
  <g id="Medium-M" transform="matrix(1.0,0.0,0.0,1.0,1707.6231273187784,1050.5531468500285)">  <path stroke-linecap="butt" fill="#000000" stroke-miterlimit="4" cy="50" stroke-dasharray="none" stroke="none" stroke-width="3.98px" fill-opacity="1" cx="50" fill-rule="nonzero" stroke-opacity="1" r="40" stroke-linejoin="miter" d="M70.412,40.217C70.412,56.893,56.893,70.412,40.217,70.412C23.54,70.412,10.021,56.893,10.021,40.217C10.021,23.54,23.54,10.021,40.217,10.021C56.893,10.021,70.412,23.54,70.412,40.217ZM74.368,40.217C74.368,21.355,59.078,6.065,40.217,6.065C21.355,6.065,6.065,21.355,6.065,40.217C6.065,59.078,21.355,74.368,40.217,74.368C59.078,74.368,74.368,59.078,74.368,40.217Z"/>
  <path fill-rule="nonzero" stroke-dasharray="none" stroke-miterlimit="4" stroke-linecap="butt" fill="#000000" stroke-width="0.990025px" stroke-opacity="1" fill-opacity="1" stroke="none" stroke-linejoin="miter" points="50,20 60,55 50,50 40,55" d="M40.217,16.087L48.26,44.239L40.217,40.217L32.173,44.239ZM40.217,16.087"/>
  <path cy="50" r="3" fill="#000000" stroke-miterlimit="4" cx="50" stroke-linecap="butt" stroke-width="0.990025px" fill-opacity="1" stroke-dasharray="none" stroke-opacity="1" stroke-linejoin="miter" stroke="none" fill-rule="nonzero" d="M42.63,40.217C42.63,41.55,41.55,42.63,40.217,42.63C38.884,42.63,37.804,41.55,37.804,40.217C37.804,38.884,38.884,37.804,40.217,37.804C41.55,37.804,42.63,38.884,42.63,40.217ZM42.63,40.217"/>
</g>
  <g id="Regular-M" transform="matrix(1.0,0.0,0.0,1.0,1410.9131273187784,1050.5531468500285)">  <path stroke-linejoin="miter" fill-rule="nonzero" r="40" fill-opacity="1" stroke-linecap="butt" fill="#000000" stroke-dasharray="none" cx="50" stroke="none" cy="50" stroke-width="3.98px" stroke-opacity="1" stroke-miterlimit="4" d="M70.798,40.217C70.798,57.106,57.106,70.798,40.217,70.798C23.328,70.798,9.636,57.106,9.636,40.217C9.636,23.328,23.328,9.636,40.217,9.636C57.106,9.636,70.798,23.328,70.798,40.217ZM73.983,40.217C73.983,21.568,58.865,6.451,40.217,6.451C21.568,6.451,6.451,21.568,6.451,40.217C6.451,58.865,21.568,73.983,40.217,73.983C58.865,73.983,73.983,58.865,73.983,40.217Z"/>
  <path points="50,20 60,55 50,50 40,55" fill-opacity="1" stroke-dasharray="none" stroke-linejoin="miter" stroke-miterlimit="4" fill-rule="nonzero" stroke-linecap="butt" stroke="none" stroke-width="0.990025px" fill="#000000" stroke-opacity="1" d="M40.217,16.087L48.26,44.239L40.217,40.217L32.173,44.239ZM40.217,16.087"/>
  <path fill-opacity="1" stroke-dasharray="none" stroke-linejoin="miter" stroke="none" stroke-miterlimit="4" fill="#000000" stroke-width="0.990025px" r="3" cy="50" stroke-opacity="1" stroke-linecap="butt" cx="50" fill-rule="nonzero" d="M42.63,40.217C42.63,41.55,41.55,42.63,40.217,42.63C38.884,42.63,37.804,41.55,37.804,40.217C37.804,38.884,38.884,37.804,40.217,37.804C41.55,37.804,42.63,38.884,42.63,40.217ZM42.63,40.217"/>
</g>
  <g id="Light-M" transform="matrix(1.0,0.0,0.0,1.0,1114.2031273187786,1050.5531468500285)">  <path stroke="none" stroke-width="3.98px" fill="#000000" cy="50" stroke-linecap="butt" r="40" fill-rule="nonzero" stroke-dasharray="none" cx="50" stroke-linejoin="miter" stroke-miterlimit="4" fill-opacity="1" stroke-opacity="1" d="M71.063,40.217C71.063,57.253,57.253,71.063,40.217,71.063C23.181,71.063,9.371,57.253,9.371,40.217C9.371,23.181,23.181,9.371,40.217,9.371C57.253,9.371,71.063,23.181,71.063,40.217ZM73.718,40.217C73.718,21.715,58.719,6.716,40.217,6.716C21.715,6.716,6.716,21.715,6.716,40.217C6.716,58.719,21.715,73.718,40.217,73.718C58.719,73.718,73.718,58.719,73.718,40.217Z"/>
  <path points="50,20 60,55 50,50 40,55" stroke-linecap="butt" stroke-width="0.990025px" stroke-dasharray="none" stroke-linejoin="miter" fill="#000000" fill-opacity="1" stroke-miterlimit="4" stroke="none" fill-rule="nonzero" stroke-opacity="1" d="M40.217,16.087L48.26,44.239L40.217,40.217L32.173,44.239ZM40.217,16.087"/>
  <path stroke-dasharray="none" stroke-linejoin="miter" cx="50" fill-rule="nonzero" stroke-miterlimit="4" r="3" cy="50" fill="#000000" stroke-opacity="1" fill-opacity="1" stroke="none" stroke-linecap="butt" stroke-width="0.990025px" d="M42.63,40.217C42.63,41.55,41.55,42.63,40.217,42.63C38.884,42.63,37.804,41.55,37.804,40.217C37.804,38.884,38.884,37.804,40.217,37.804C41.55,37.804,42.63,38.884,42.63,40.217ZM42.63,40.217"/>
</g>
  <g id="Thin-M" transform="matrix(1.0,0.0,0.0,1.0,817.4931273187785,1050.5531468500285)">  <path fill-rule="nonzero" fill-opacity="1" stroke="none" stroke-linejoin="miter" stroke-opacity="1" stroke-width="3.98px" stroke-miterlimit="4" r="40" stroke-dasharray="none" cy="50" fill="#000000" cx="50" stroke-linecap="butt" d="M71.329,40.217C71.329,57.399,57.399,71.329,40.217,71.329C23.034,71.329,9.105,57.399,9.105,40.217C9.105,23.034,23.034,9.105,40.217,9.105C57.399,9.105,71.329,23.034,71.329,40.217ZM73.452,40.217C73.452,21.862,58.572,6.982,40.217,6.982C21.862,6.982,6.982,21.862,6.982,40.217C6.982,58.572,21.862,73.452,40.217,73.452C58.572,73.452,73.452,58.572,73.452,40.217Z"/>
  <path fill-rule="nonzero" stroke-width="0.990025px" stroke="none" stroke-linecap="butt" stroke-opacity="1" stroke-linejoin="miter" stroke-miterlimit="4" fill="#000000" fill-opacity="1" stroke-dasharray="none" points="50,20 60,55 50,50 40,55" d="M40.217,16.087L48.26,44.239L40.217,40.217L32.173,44.239ZM40.217,16.087"/>
  <path cx="50" fill-rule="nonzero" stroke-dasharray="none" stroke="none" stroke-opacity="1" stroke-linecap="butt" fill="#000000" stroke-width="0.990025px" stroke-linejoin="miter" fill-opacity="1" r="3" stroke-miterlimit="4" cy="50" d="M42.63,40.217C42.63,41.55,41.55,42.63,40.217,42.63C38.884,42.63,37.804,41.55,37.804,40.217C37.804,38.884,38.884,37.804,40.217,37.804C41.55,37.804,42.63,38.884,42.63,40.217ZM42.63,40.217"/>
</g>
  <g id="Ultralight-M" transform="matrix(1.0,0.0,0.0,1.0,520.7831273187785,1050.5531468500285)">  <path fill-rule="nonzero" stroke-dasharray="none" stroke="none" fill-opacity="1" fill="#000000" stroke-linejoin="miter" stroke-linecap="butt" r="40" stroke-width="3.98px" cx="50" cy="50" stroke-miterlimit="4" stroke-opacity="1" d="M71.594,40.217C71.594,57.546,57.546,71.594,40.217,71.594C22.888,71.594,8.84,57.546,8.84,40.217C8.84,22.888,22.888,8.84,40.217,8.84C57.546,8.84,71.594,22.888,71.594,40.217ZM73.187,40.217C73.187,22.008,58.426,7.247,40.217,7.247C22.008,7.247,7.247,22.008,7.247,40.217C7.247,58.426,22.008,73.187,40.217,73.187C58.426,73.187,73.187,58.426,73.187,40.217Z"/>
  <path fill-opacity="1" stroke-miterlimit="4" stroke="none" stroke-linecap="butt" stroke-dasharray="none" fill-rule="nonzero" stroke-linejoin="miter" stroke-width="0.990025px" fill="#000000" points="50,20 60,55 50,50 40,55" stroke-opacity="1" d="M40.217,16.087L48.26,44.239L40.217,40.217L32.173,44.239ZM40.217,16.087"/>
  <path stroke-dasharray="none" r="3" stroke="none" stroke-linejoin="miter" fill="#000000" fill-opacity="1" stroke-miterlimit="4" stroke-width="0.990025px" fill-rule="nonzero" cx="50" cy="50" stroke-linecap="butt" stroke-opacity="1" d="M42.63,40.217C42.63,41.55,41.55,42.63,40.217,42.63C38.884,42.63,37.804,41.55,37.804,40.217C37.804,38.884,38.884,37.804,40.217,37.804C41.55,37.804,42.63,38.884,42.63,40.217ZM42.63,40.217"/>
</g>
  <g id="Black-S" transform="matrix(1.0,0.0,0.0,1.0,2903.1901886906035,629.2802082218536)">  <path stroke-linecap="butt" stroke="none" r="40" stroke-miterlimit="4" stroke-width="3.98px" fill="#000000" stroke-linejoin="miter" stroke-opacity="1" fill-opacity="1" fill-rule="nonzero" stroke-dasharray="none" cx="50" cy="50" d="M53.926,31.49C53.926,43.881,43.881,53.926,31.49,53.926C19.099,53.926,9.054,43.881,9.054,31.49C9.054,19.099,19.099,9.054,31.49,9.054C43.881,9.054,53.926,19.099,53.926,31.49ZM59.438,31.49C59.438,16.055,46.925,3.542,31.49,3.542C16.055,3.542,3.542,16.055,3.542,31.49C3.542,46.925,16.055,59.438,31.49,59.438C46.925,59.438,59.438,46.925,59.438,31.49Z"/>
  <path stroke-dasharray="none" points="50,20 60,55 50,50 40,55" fill="#000000" stroke-width="0.990025px" fill-rule="nonzero" stroke-linecap="butt" stroke-miterlimit="4" stroke-linejoin="miter" fill-opacity="1" stroke="none" stroke-opacity="1" d="M31.49,12.596L37.788,34.639L31.49,31.49L25.192,34.639ZM31.49,12.596"/>
  <path fill="#000000" r="3" stroke-opacity="1" stroke-dasharray="none" stroke-width="0.990025px" stroke-miterlimit="4" fill-rule="nonzero" cy="50" cx="50" stroke-linejoin="miter" stroke-linecap="butt" fill-opacity="1" stroke="none" d="M33.379,31.49C33.379,32.533,32.533,33.379,31.49,33.379C30.446,33.379,29.6,32.533,29.6,31.49C29.6,30.446,30.446,29.6,31.49,29.6C32.533,29.6,33.379,30.446,33.379,31.49ZM33.379,31.49"/>
</g>
  <g id="Heavy-S" transform="matrix(1.0,0.0,0.0,1.0,2606.4801886906034,629.2802082218536)">  <path stroke-miterlimit="4" stroke-dasharray="none" r="40" stroke-linecap="butt" fill="#000000" stroke-opacity="1" fill-rule="nonzero" cy="50" stroke="none" stroke-linejoin="miter" cx="50" stroke-width="3.98px" fill-opacity="1" d="M54.228,31.49C54.228,44.047,44.047,54.228,31.49,54.228C18.932,54.228,8.752,44.047,8.752,31.49C8.752,18.932,18.932,8.752,31.49,8.752C44.047,8.752,54.228,18.932,54.228,31.49ZM59.136,31.49C59.136,16.221,46.758,3.844,31.49,3.844C16.221,3.844,3.844,16.221,3.844,31.49C3.844,46.758,16.221,59.136,31.49,59.136C46.758,59.136,59.136,46.758,59.136,31.49Z"/>
  <path stroke="none" points="50,20 60,55 50,50 40,55" fill-rule="nonzero" fill-opacity="1" stroke-width="0.990025px" stroke-linecap="butt" stroke-miterlimit="4" stroke-dasharray="none" stroke-linejoin="miter" stroke-opacity="1" fill="#000000" d="M31.49,12.596L37.788,34.639L31.49,31.49L25.192,34.639ZM31.49,12.596"/>
  <path cy="50" fill-opacity="1" r="3" stroke="none" stroke-opacity="1" fill="#000000" fill-rule="nonzero" cx="50" stroke-width="0.990025px" stroke-miterlimit="4" stroke-dasharray="none" stroke-linejoin="miter" stroke-linecap="butt" d="M33.379,31.49C33.379,32.533,32.533,33.379,31.49,33.379C30.446,33.379,29.6,32.533,29.6,31.49C29.6,30.446,30.446,29.6,31.49,29.6C32.533,29.6,33.379,30.446,33.379,31.49ZM33.379,31.49"/>
</g>
  <g id="Bold-S" transform="matrix(1.0,0.0,0.0,1.0,2309.7701886906034,629.2802082218536)">  <path stroke-miterlimit="4" stroke-dasharray="none" stroke-opacity="1" fill-rule="nonzero" cx="50" fill-opacity="1" cy="50" stroke="none" stroke-width="3.98px" stroke-linejoin="miter" stroke-linecap="butt" fill="#000000" r="40" d="M54.529,31.49C54.529,44.214,44.214,54.529,31.49,54.529C18.765,54.529,8.45,44.214,8.45,31.49C8.45,18.765,18.765,8.45,31.49,8.45C44.214,8.45,54.529,18.765,54.529,31.49ZM58.834,31.49C58.834,16.388,46.592,4.146,31.49,4.146C16.388,4.146,4.146,16.388,4.146,31.49C4.146,46.592,16.388,58.834,31.49,58.834C46.592,58.834,58.834,46.592,58.834,31.49Z"/>
  <path points="50,20 60,55 50,50 40,55" stroke-opacity="1" stroke="none" stroke-linejoin="miter" fill-opacity="1" stroke-miterlimit="4" stroke-linecap="butt" fill="#000000" fill-rule="nonzero" stroke-dasharray="none" stroke-width="0.990025px" d="M31.49,12.596L37.788,34.639L31.49,31.49L25.192,34.639ZM31.49,12.596"/>
  <path stroke-dasharray="none" stroke-opacity="1" fill-opacity="1" r="3" stroke-width="0.990025px" stroke="none" fill="#000000" stroke-miterlimit="4" stroke-linecap="butt" fill-rule="nonzero" cx="50" stroke-linejoin="miter" cy="50" d="M33.379,31.49C33.379,32.533,32.533,33.379,31.49,33.379C30.446,33.379,29.6,32.533,29.6,31.49C29.6,30.446,30.446,29.6,31.49,29.6C32.533,29.6,33.379,30.446,33.379,31.49ZM33.379,31.49"/>
</g>
  <g id="Semibold-S" transform="matrix(1.0,0.0,0.0,1.0,2013.0601886906036,629.2802082218536)">  <path fill-rule="nonzero" stroke-width="3.98px" fill="#000000" cx="50" stroke-linecap="butt" r="40" stroke="none" stroke-linejoin="miter" fill-opacity="1" cy="50" stroke-miterlimit="4" stroke-opacity="1" stroke-dasharray="none" d="M54.831,31.49C54.831,44.381,44.381,54.831,31.49,54.831C18.599,54.831,8.149,44.381,8.149,31.49C8.149,18.599,18.599,8.149,31.49,8.149C44.381,8.149,54.831,18.599,54.831,31.49ZM58.532,31.49C58.532,16.555,46.425,4.447,31.49,4.447C16.555,4.447,4.447,16.555,4.447,31.49C4.447,46.425,16.555,58.532,31.49,58.532C46.425,58.532,58.532,46.425,58.532,31.49Z"/>
  <path stroke-miterlimit="4" stroke-opacity="1" stroke-linecap="butt" stroke-dasharray="none" fill-rule="nonzero" points="50,20 60,55 50,50 40,55" stroke-width="0.990025px" stroke-linejoin="miter" fill="#000000" fill-opacity="1" stroke="none" d="M31.49,12.596L37.788,34.639L31.49,31.49L25.192,34.639ZM31.49,12.596"/>
  <path fill="#000000" cx="50" stroke="none" stroke-dasharray="none" fill-rule="nonzero" stroke-width="0.990025px" stroke-linecap="butt" stroke-linejoin="miter" stroke-miterlimit="4" cy="50" fill-opacity="1" r="3" stroke-opacity="1" d="M33.379,31.49C33.379,32.533,32.533,33.379,31.49,33.379C30.446,33.379,29.6,32.533,29.6,31.49C29.6,30.446,30.446,29.6,31.49,29.6C32.533,29.6,33.379,30.446,33.379,31.49ZM33.379,31.49"/>
</g>
  <g id="Medium-S" transform="matrix(1.0,0.0,0.0,1.0,1716.3501886906035,629.2802082218536)">  <path stroke-linecap="butt" fill="#000000" stroke-miterlimit="4" cy="50" stroke-dasharray="none" stroke="none" stroke-width="3.98px" fill-opacity="1" cx="50" fill-rule="nonzero" stroke-opacity="1" r="40" stroke-linejoin="miter" d="M55.133,31.49C55.133,44.548,44.548,55.133,31.49,55.133C18.432,55.133,7.847,44.548,7.847,31.49C7.847,18.432,18.432,7.847,31.49,7.847C44.548,7.847,55.133,18.432,55.133,31.49ZM58.23,31.49C58.23,16.721,46.258,4.749,31.49,4.749C16.721,4.749,4.749,16.721,4.749,31.49C4.749,46.258,16.721,58.23,31.49,58.23C46.258,58.23,58.23,46.258,58.23,31.49Z"/>
  <path fill-rule="nonzero" stroke-dasharray="none" stroke-miterlimit="4" stroke-linecap="butt" fill="#000000" stroke-width="0.990025px" stroke-opacity="1" fill-opacity="1" stroke="none" stroke-linejoin="miter" points="50,20 60,55 50,50 40,55" d="M31.49,12.596L37.788,34.639L31.49,31.49L25.192,34.639ZM31.49,12.596"/>
  <path cy="50" r="3" fill="#000000" stroke-miterlimit="4" cx="50" stroke-linecap="butt" stroke-width="0.990025px" fill-opacity="1" stroke-dasharray="none" stroke-opacity="1" stroke-linejoin="miter" stroke="none" fill-rule="nonzero" d="M33.379,31.49C33.379,32.533,32.533,33.379,31.49,33.379C30.446,33.379,29.6,32.533,29.6,31.49C29.6,30.446,30.446,29.6,31.49,29.6C32.533,29.6,33.379,30.446,33.379,31.49ZM33.379,31.49"/>
</g>
  <g id="Regular-S" transform="matrix(1.0,0.0,0.0,1.0,1419.6401886906035,629.2802082218536)">  <path stroke-linejoin="miter" fill-rule="nonzero" r="40" fill-opacity="1" stroke-linecap="butt" fill="#000000" stroke-dasharray="none" cx="50" stroke="none" cy="50" stroke-width="3.98px" stroke-opacity="1" stroke-miterlimit="4" d="M55.435,31.49C55.435,44.714,44.714,55.435,31.49,55.435C18.265,55.435,7.545,44.714,7.545,31.49C7.545,18.265,18.265,7.545,31.49,7.545C44.714,7.545,55.435,18.265,55.435,31.49ZM57.929,31.49C57.929,16.888,46.092,5.051,31.49,5.051C16.888,5.051,5.051,16.888,5.051,31.49C5.051,46.092,16.888,57.929,31.49,57.929C46.092,57.929,57.929,46.092,57.929,31.49Z"/>
  <path points="50,20 60,55 50,50 40,55" fill-opacity="1" stroke-dasharray="none" stroke-linejoin="miter" stroke-miterlimit="4" fill-rule="nonzero" stroke-linecap="butt" stroke="none" stroke-width="0.990025px" fill="#000000" stroke-opacity="1" d="M31.49,12.596L37.788,34.639L31.49,31.49L25.192,34.639ZM31.49,12.596"/>
  <path fill-opacity="1" stroke-dasharray="none" stroke-linejoin="miter" stroke="none" stroke-miterlimit="4" fill="#000000" stroke-width="0.990025px" r="3" cy="50" stroke-opacity="1" stroke-linecap="butt" cx="50" fill-rule="nonzero" d="M33.379,31.49C33.379,32.533,32.533,33.379,31.49,33.379C30.446,33.379,29.6,32.533,29.6,31.49C29.6,30.446,30.446,29.6,31.49,29.6C32.533,29.6,33.379,30.446,33.379,31.49ZM33.379,31.49"/>
</g>
  <g id="Light-S" transform="matrix(1.0,0.0,0.0,1.0,1122.9301886906037,629.2802082218536)">  <path stroke="none" stroke-width="3.98px" fill="#000000" cy="50" stroke-linecap="butt" r="40" fill-rule="nonzero" stroke-dasharray="none" cx="50" stroke-linejoin="miter" stroke-miterlimit="4" fill-opacity="1" stroke-opacity="1" d="M55.642,31.49C55.642,44.829,44.829,55.642,31.49,55.642C18.151,55.642,7.337,44.829,7.337,31.49C7.337,18.151,18.151,7.337,31.49,7.337C44.829,7.337,55.642,18.151,55.642,31.49ZM57.721,31.49C57.721,17.003,45.977,5.259,31.49,5.259C17.003,5.259,5.259,17.003,5.259,31.49C5.259,45.977,17.003,57.721,31.49,57.721C45.977,57.721,57.721,45.977,57.721,31.49Z"/>
  <path points="50,20 60,55 50,50 40,55" stroke-linecap="butt" stroke-width="0.990025px" stroke-dasharray="none" stroke-linejoin="miter" fill="#000000" fill-opacity="1" stroke-miterlimit="4" stroke="none" fill-rule="nonzero" stroke-opacity="1" d="M31.49,12.596L37.788,34.639L31.49,31.49L25.192,34.639ZM31.49,12.596"/>
  <path stroke-dasharray="none" stroke-linejoin="miter" cx="50" fill-rule="nonzero" stroke-miterlimit="4" r="3" cy="50" fill="#000000" stroke-opacity="1" fill-opacity="1" stroke="none" stroke-linecap="butt" stroke-width="0.990025px" d="M33.379,31.49C33.379,32.533,32.533,33.379,31.49,33.379C30.446,33.379,29.6,32.533,29.6,31.49C29.6,30.446,30.446,29.6,31.49,29.6C32.533,29.6,33.379,30.446,33.379,31.49ZM33.379,31.49"/>
</g>
  <g id="Thin-S" transform="matrix(1.0,0.0,0.0,1.0,826.2201886906037,629.2802082218536)">  <path fill-rule="nonzero" fill-opacity="1" stroke="none" stroke-linejoin="miter" stroke-opacity="1" stroke-width="3.98px" stroke-miterlimit="4" r="40" stroke-dasharray="none" cy="50" fill="#000000" cx="50" stroke-linecap="butt" d="M55.85,31.49C55.85,44.944,44.944,55.85,31.49,55.85C18.036,55.85,7.129,44.944,7.129,31.49C7.129,18.036,18.036,7.129,31.49,7.129C44.944,7.129,55.85,18.036,55.85,31.49ZM57.513,31.49C57.513,17.118,45.862,5.467,31.49,5.467C17.118,5.467,5.467,17.118,5.467,31.49C5.467,45.862,17.118,57.513,31.49,57.513C45.862,57.513,57.513,45.862,57.513,31.49Z"/>
  <path fill-rule="nonzero" stroke-width="0.990025px" stroke="none" stroke-linecap="butt" stroke-opacity="1" stroke-linejoin="miter" stroke-miterlimit="4" fill="#000000" fill-opacity="1" stroke-dasharray="none" points="50,20 60,55 50,50 40,55" d="M31.49,12.596L37.788,34.639L31.49,31.49L25.192,34.639ZM31.49,12.596"/>
  <path cx="50" fill-rule="nonzero" stroke-dasharray="none" stroke="none" stroke-opacity="1" stroke-linecap="butt" fill="#000000" stroke-width="0.990025px" stroke-linejoin="miter" fill-opacity="1" r="3" stroke-miterlimit="4" cy="50" d="M33.379,31.49C33.379,32.533,32.533,33.379,31.49,33.379C30.446,33.379,29.6,32.533,29.6,31.49C29.6,30.446,30.446,29.6,31.49,29.6C32.533,29.6,33.379,30.446,33.379,31.49ZM33.379,31.49"/>
</g>
  <g id="Ultralight-S" transform="matrix(1.0,0.0,0.0,1.0,529.5101886906036,629.2802082218536)">  <path fill-rule="nonzero" stroke-dasharray="none" stroke="none" fill-opacity="1" fill="#000000" stroke-linejoin="miter" stroke-linecap="butt" r="40" stroke-width="3.98px" cx="50" cy="50" stroke-miterlimit="4" stroke-opacity="1" d="M56.058,31.49C56.058,45.059,45.059,56.058,31.49,56.058C17.921,56.058,6.921,45.059,6.921,31.49C6.921,17.921,17.921,6.921,31.49,6.921C45.059,6.921,56.058,17.921,56.058,31.49ZM57.305,31.49C57.305,17.232,45.747,5.674,31.49,5.674C17.232,5.674,5.674,17.232,5.674,31.49C5.674,45.747,17.232,57.305,31.49,57.305C45.747,57.305,57.305,45.747,57.305,31.49Z"/>
  <path fill-opacity="1" stroke-miterlimit="4" stroke="none" stroke-linecap="butt" stroke-dasharray="none" fill-rule="nonzero" stroke-linejoin="miter" stroke-width="0.990025px" fill="#000000" points="50,20 60,55 50,50 40,55" stroke-opacity="1" d="M31.49,12.596L37.788,34.639L31.49,31.49L25.192,34.639ZM31.49,12.596"/>
  <path stroke-dasharray="none" r="3" stroke="none" stroke-linejoin="miter" fill="#000000" fill-opacity="1" stroke-miterlimit="4" stroke-width="0.990025px" fill-rule="nonzero" cx="50" cy="50" stroke-linecap="butt" stroke-opacity="1" d="M33.379,31.49C33.379,32.533,32.533,33.379,31.49,33.379C30.446,33.379,29.6,32.533,29.6,31.49C29.6,30.446,30.446,29.6,31.49,29.6C32.533,29.6,33.379,30.446,33.379,31.49ZM33.379,31.49"/>
</g>
 </g>
</svg>
